<svg xmlns="http://www.w3.org/2000/svg" xmlns:xlink="http://www.w3.org/1999/xlink" version="1.0" x="0px" y="0px" viewBox="0 0 32 40" enable-background="new 0 0 32 32" xml:space="preserve"><path d="M16.7,29C9.7,29,4,23.3,4,16.3c0-7,5.7-12.7,12.7-12.7s12.7,5.7,12.7,12.7C29.3,23.3,23.7,29,16.7,29z M16.7,5.2  c-6.2,0-11.2,5-11.2,11.2s5,11.2,11.2,11.2s11.2-5,11.2-11.2S22.8,5.2,16.7,5.2z"/><path d="M16.7,5.8c-5.8,0-10.5,4.7-10.5,10.5c0,5.8,4.7,10.5,10.5,10.5c5.8,0,10.5-4.7,10.5-10.5C27.2,10.5,22.5,5.8,16.7,5.8z   M23.5,22.9l-0.3-0.3c-0.1-0.1-0.3-0.1-0.4,0s-0.1,0.3,0,0.4l0.3,0.3c-1.7,1.6-3.9,2.5-6.3,2.6v-0.4c0-0.1-0.1-0.2-0.2-0.2  s-0.2,0.1-0.2,0.2v0.4c-2.4-0.1-4.6-1.1-6.3-2.6l0.3-0.3c0.1-0.1,0.1-0.3,0-0.4s-0.3-0.1-0.4,0l-0.3,0.3c-1.5-1.6-2.5-3.8-2.6-6.3  h0.4c0.1,0,0.2-0.1,0.2-0.2s-0.1-0.2-0.2-0.2H7.2c0.1-2.4,1-4.6,2.6-6.2l0.3,0.3c0,0,0.1,0.1,0.2,0.1s0.1,0,0.2-0.1  c0.1-0.1,0.1-0.3,0-0.4l-0.3-0.3c1.6-1.6,3.8-2.5,6.3-2.6v0.4c0,0.1,0.1,0.2,0.2,0.2s0.2-0.1,0.2-0.2V6.8c2.4,0.1,4.6,1,6.3,2.6  l-0.3,0.3c-0.1,0.1-0.1,0.3,0,0.4c0,0,0.1,0.1,0.2,0.1c0.1,0,0.1,0,0.2-0.1l0.3-0.3c1.6,1.6,2.6,3.9,2.6,6.3h-0.5  c-0.1,0-0.2,0.1-0.2,0.2s0.1,0.2,0.2,0.2h0.5C26.1,19,25.1,21.2,23.5,22.9z"/><path d="M21.3,15.3h-3.2c-0.1-0.2-0.3-0.4-0.5-0.5v-6c0-0.6-0.4-1-1-1c-0.6,0-1,0.4-1,1v6c-0.5,0.3-0.8,0.9-0.8,1.5  c0,1,0.8,1.8,1.8,1.8c0.6,0,1.2-0.3,1.5-0.8h3.2c0.6,0,1-0.4,1-1S21.9,15.3,21.3,15.3z M16.7,17.1c-0.4,0-0.8-0.4-0.8-0.8  s0.4-0.8,0.8-0.8s0.8,0.4,0.8,0.8S17.1,17.1,16.7,17.1z"/><text x="0" y="47" fill="#000000" font-size="5px" font-weight="bold" font-family="'Helvetica Neue', Helvetica, Arial-Unicode, Arial, Sans-serif">Created by Nick Bluth</text><text x="0" y="52" fill="#000000" font-size="5px" font-weight="bold" font-family="'Helvetica Neue', Helvetica, Arial-Unicode, Arial, Sans-serif">from the Noun Project</text></svg>