<svg xmlns="http://www.w3.org/2000/svg" xmlns:xlink="http://www.w3.org/1999/xlink" version="1.1" x="0px" y="0px" viewBox="0 0 91 113.75" enable-background="new 0 0 91 91" xml:space="preserve"><g><g><path d="M27.676,29.236c-0.736-0.527-1.695-0.619-2.516-0.24c-4.912,2.258-9.367,8.639-11.629,16.648    c-3.043,10.774-1.529,21.823,4.15,30.319c6.125,9.162,17.334,14.855,29.252,14.855c9.541,0,18.428-3.689,24.381-10.123    c11.486-12.406,7.951-30.467-1.475-41.894c-1.797-2.182-3.57-4.148-5.285-6.053c-8.184-9.081-13.59-15.081-7.836-28.776    c0.379-0.9,0.201-1.936-0.453-2.66c-0.652-0.723-1.668-1.002-2.6-0.717C39.424,4.963,33.795,13.977,36.463,28.156    c0.168,0.895,0.412,1.861,0.672,2.885c1.6,6.323,1.76,9.366-1.518,10.691c-0.318,0.129-0.621,0.191-0.924,0.191    c-1.129,0-2.174-0.896-2.85-1.647c-2-2.221-3.406-6.139-3.135-8.736C28.803,30.643,28.408,29.762,27.676,29.236z M37.502,46.391    c7.893-3.192,5.771-11.574,4.504-16.582c-0.24-0.945-0.465-1.838-0.605-2.582c-1.861-9.895,0.809-16.094,8.867-19.959    C46.73,20.475,53.32,27.789,60.82,36.112c1.68,1.863,3.416,3.789,5.143,5.886c7.842,9.506,11.09,25.104,1.664,35.284    c-5.006,5.41-12.549,8.512-20.693,8.512c-10.262,0-19.869-4.836-25.074-12.623c-4.861-7.27-6.135-16.805-3.492-26.16    c1.273-4.51,3.408-8.511,5.779-11.058c0.703,2.811,2.117,5.639,3.963,7.687C30.844,46.676,34.311,47.686,37.502,46.391z"/><path d="M49.711,78.348c5.201,0,11.525-1.846,13.676-7.021c4.127-9.912-4.074-18.932-8.975-24.322    c-0.525-0.578-1.018-1.117-1.453-1.616c-0.68-0.775-1.766-1.061-2.736-0.709c-0.973,0.348-1.633,1.254-1.664,2.286    c-0.158,4.955-3.012,7.932-6.033,11.084c-3.248,3.387-6.93,7.227-5.6,13.303C37.984,76.184,44.109,78.348,49.711,78.348z     M46.152,61.525c2.283-2.381,4.965-5.178,6.402-9.07c4.107,4.68,8.701,10.918,6.191,16.941c-1.127,2.713-5.35,3.926-9.035,3.926    c-4.453,0-7.557-1.58-7.877-3.045C41.113,66.98,42.912,64.906,46.152,61.525z"/></g></g><text x="0" y="106" fill="#000000" font-size="5px" font-weight="bold" font-family="'Helvetica Neue', Helvetica, Arial-Unicode, Arial, Sans-serif">Created by BomSymbols</text><text x="0" y="111" fill="#000000" font-size="5px" font-weight="bold" font-family="'Helvetica Neue', Helvetica, Arial-Unicode, Arial, Sans-serif">from the Noun Project</text></svg>