<svg xmlns="http://www.w3.org/2000/svg" xmlns:xlink="http://www.w3.org/1999/xlink" version="1.1" x="0px" y="0px" viewBox="0 0 98 122.5" style="enable-background:new 0 0 98 98;" xml:space="preserve"><path d="M52,73.2V58.8h1.7c12.5,0,22.7-10.2,22.7-22.7v-4.7c0-1.7-1.3-3-3-3h-4.7c-6.6,0-12.5,2.8-16.7,7.3v-5.9v-4.7  C52,12.6,41.8,2.4,29.3,2.4h-4.7c-1.7,0-3,1.3-3,3v4.7c0,12.5,10.2,22.7,22.7,22.7H46v18.3v4.7v2.1c-0.3-0.3-0.5-0.6-0.8-0.8  c-4.3-4.2-9.8-6.5-15.7-6.5c-0.1,0-0.1,0-0.2,0h-4.7c-1.7,0-3,1.3-3,3v4.7c0,12.5,10.2,22.7,22.7,22.7H46v8.7H29.3c-1.7,0-3,1.3-3,3  s1.3,3,3,3h39.4c1.7,0,3-1.3,3-3s-1.3-3-3-3H52V77.9V73.2z M27.6,10.1V8.4h1.7c9.2,0,16.7,7.5,16.7,16.7v1.7h-1.7  C35.1,26.8,27.6,19.3,27.6,10.1z M68.7,34.4h1.7v1.7c0,9.2-7.5,16.7-16.7,16.7H52v-1.7C52,41.9,59.5,34.4,68.7,34.4z M44.3,74.9  c-9.2,0-16.7-7.5-16.7-16.7v-1.7h1.7c4.4-0.1,8.5,1.7,11.7,4.8c3.2,3.2,5,7.4,5,11.9v1.7H44.3z"/><text x="0" y="113" fill="#000000" font-size="5px" font-weight="bold" font-family="'Helvetica Neue', Helvetica, Arial-Unicode, Arial, Sans-serif">Created by James</text><text x="0" y="118" fill="#000000" font-size="5px" font-weight="bold" font-family="'Helvetica Neue', Helvetica, Arial-Unicode, Arial, Sans-serif">from the Noun Project</text></svg>