<svg xmlns="http://www.w3.org/2000/svg" xmlns:xlink="http://www.w3.org/1999/xlink" viewBox="0 0 32 40" version="1.1" x="0px" y="0px"><title>Hourglass_32x32</title><desc>Created with Sketch.</desc><g stroke="none" stroke-width="1" fill="none" fill-rule="evenodd"><g fill-rule="nonzero" fill="#000000"><path d="M19.7952801,26 L22.9417506,26 C22.7200844,24.2233113 21.8605538,22.786111 20.2676463,21.0728539 C20.0102203,20.7959786 19.1395298,19.8934927 19.0514751,19.800487 C18.570543,19.2925137 18.231841,18.9030315 17.9438099,18.5099271 C17.3315885,17.6743682 17.0032949,16.8751234 17.0000071,16.0037732 C17.0028813,15.234499 17.3901292,14.5724681 18.1821819,13.653755 C18.4129551,13.386078 19.8224768,11.8675962 20.240178,11.3794006 C21.8015299,9.55454273 22.7112045,7.88311363 22.9415747,6 L9.08184077,6 C9.3481971,7.85569331 10.2483206,9.50550558 11.7636732,11.3030949 C12.1786685,11.7953837 13.5862052,13.3346401 13.8210283,13.6114717 C14.6082883,14.5395682 14.9948092,15.212526 15,15.9864999 C15,16.8999103 14.6629099,17.7223538 14.0295341,18.5863754 C13.7435732,18.97647 13.4098252,19.3628258 12.9341168,19.8706443 C12.8783676,19.9301565 11.9958521,20.8566364 11.7360433,21.1399014 C10.1910807,22.8243477 9.33871518,24.2481266 9.08196538,26 L12.2626396,26 L16,22 L19.7952801,26 Z M6,5 L6,3 C6,1.8954305 6.8954305,1 8,1 L24,1 C25.1045695,1 26,1.8954305 26,3 L26,5 C26,5.80617762 25.5230122,6.50094877 24.8358587,6.81749142 C24.4489307,8.9257755 23.4097607,10.7512676 21.7598476,12.6796329 C21.3078425,13.2079219 19.8949061,14.7300823 19.696954,14.9596898 C19.2061607,15.5289678 19.0004575,15.8806336 18.9999929,15.9962268 C19.0014624,16.3856787 19.1733189,16.8040709 19.5571002,17.327855 C19.7854543,17.6395123 20.0756645,17.9732326 20.5038168,18.4254585 C20.5801765,18.5061116 21.4597371,19.4177914 21.7323693,19.7110219 C23.4414892,21.5492716 24.4466951,23.1603792 24.8311503,25.1803471 C25.5208324,25.4958803 26,26.1919824 26,27 L26,29 C26,30.1045695 25.1045695,31 24,31 L8,31 C6.8954305,31 6,30.1045695 6,29 L6,27 C6,26.1780604 6.49582174,25.4719262 7.20468492,25.1643777 C7.61671974,23.1821503 8.60603104,21.5936377 10.2621217,19.7880305 C10.537224,19.4880912 11.430275,18.550551 11.4745098,18.5033304 C11.9000271,18.0490908 12.1876964,17.716077 12.4165103,17.4039397 C12.8199945,16.8535254 13,16.4143422 13,16 C12.9990658,15.8511828 12.7910726,15.4890533 12.2958351,14.9052205 C12.0938324,14.6670806 10.6835326,13.1248025 10.2345188,12.5921592 C8.63550727,10.6953293 7.61444784,8.90060881 7.19961357,6.83341364 C6.49345806,6.5247028 6,5.81997805 6,5 Z M8,27 L8,29 L24,29 L24,27 L8,27 Z M8,3 L8,5 L24,5 L24,3 L8,3 Z M16,14 C14.6612956,13.3056641 13.3279622,11.9723307 12,10 L20,10 C18.6738281,12.0112305 17.3404948,13.3445638 16,14 Z"/></g></g><text x="0" y="47" fill="#000000" font-size="5px" font-weight="bold" font-family="'Helvetica Neue', Helvetica, Arial-Unicode, Arial, Sans-serif">Created by Nick Bluth</text><text x="0" y="52" fill="#000000" font-size="5px" font-weight="bold" font-family="'Helvetica Neue', Helvetica, Arial-Unicode, Arial, Sans-serif">from the Noun Project</text></svg>