<svg xmlns="http://www.w3.org/2000/svg" xmlns:xlink="http://www.w3.org/1999/xlink" viewBox="0 0 50 62.5" version="1.1" x="0px" y="0px"><title>Artboard 2 Copy 5</title><desc>Created with Sketch.</desc><g stroke="none" stroke-width="1" fill="none" fill-rule="evenodd"><path d="M20.1808392,29.681443 L13.6365856,39.0539409 L44.0791245,39.0539409 L37.4710039,29.7425887 L34.593207,31.4195816 C33.5364023,32.0354186 32.1981032,31.968581 31.2126817,31.2507507 L29.5014908,30.0042338 C29.1435147,29.7434661 28.6502044,29.7426335 28.2912871,30.0021912 L26.5511802,31.260582 C25.567443,31.9719899 24.2356933,32.03712 23.1826028,31.4253246 L20.1808392,29.681443 Z M21.3088881,28.0658829 L24.2209316,29.7576415 C24.5719618,29.9615733 25.0158783,29.9398632 25.3437907,29.7027273 L27.0838977,28.4443365 C28.1606495,27.6656634 29.6405804,27.6681612 30.7145087,28.4504642 L32.4256996,29.6969812 C32.7541734,29.9362579 33.2002731,29.9585371 33.5525413,29.7532581 L36.3299547,28.1347623 L30.4093444,19.7921652 C30.2659753,19.590147 30.084415,19.4160877 29.8742002,19.2791297 C28.9517542,18.678143 27.6996,18.9132832 27.0774354,19.80433 L21.3088881,28.0658829 Z M11.5537646,40.9836091 L4.00868511,40.9819971 C3.20184008,40.981735 2.72274027,40.111023 3.17390582,39.4648762 L14.3494708,23.4595433 C15.5937999,21.6774497 18.0981085,21.2071694 19.9430004,22.4091428 C20.3600043,22.6808267 20.7206599,23.0255295 21.0063256,23.425434 L21.5872938,24.1869094 L25.4071992,18.7161473 C26.6515284,16.9340537 29.1558369,16.4637734 31.0007289,17.6657468 C31.4211584,17.9396626 31.7842789,18.2877813 32.0710172,18.6918177 L46.8217908,39.4767967 C47.2800424,40.1225085 46.8014117,41 45.9909544,41 L11.7421529,41 C11.6771242,41 11.6142229,40.9943453 11.5537646,40.9836091 Z M11.2179982,39.0375259 L20.391967,25.8988233 L19.3481344,24.5306713 C19.2053015,24.3307191 19.0249737,24.1583677 18.8164718,24.0225257 C17.8940258,23.421539 16.6418715,23.6566792 16.019707,24.547726 L5.90302701,39.0365533 L11.2179982,39.0375259 Z M23.3623447,15.6066073 C24.1933482,15.5746905 24.6979434,16.5120245 24.2137265,17.1881307 C23.6868817,17.9237574 22.9848141,18.5205442 22.1548561,18.9253418 C19.4247098,20.2569231 16.1320289,19.1231622 14.8004476,16.3930158 C13.4688662,13.6628695 14.6026272,10.3701886 17.3327735,9.03860728 C18.0912888,8.66865465 18.9108961,8.48132236 19.7380771,8.48095576 C20.5696641,8.4805872 21.0383455,9.43633011 20.5288874,10.0935892 C19.7366075,11.1157206 19.5801671,12.5058609 20.1570771,13.6887016 C20.7565603,14.9178244 22.0191751,15.6581951 23.3623447,15.6066073 Z M16.655076,15.361744 C17.4804196,17.0539492 19.4896998,17.7823995 21.1989746,17.0361328 C20.0118277,16.5405473 19.0093997,15.626479 18.4165293,14.4109144 C17.8593086,13.2684426 17.7339386,12.003321 18.0051953,10.8229483 C16.4587513,11.7448374 15.8515355,13.7142418 16.655076,15.361744 Z M31,11 C30.4477153,11 30,10.5522847 30,10 C30,9.44771525 30.4477153,9 31,9 C31.5522847,9 32,9.44771525 32,10 C32,10.5522847 31.5522847,11 31,11 Z M7,23 C6.44771525,23 6,22.5522847 6,22 C6,21.4477153 6.44771525,21 7,21 C7.55228475,21 8,21.4477153 8,22 C8,22.5522847 7.55228475,23 7,23 Z M10,10 C9.44771525,10 9,9.55228475 9,9 C9,8.44771525 9.44771525,8 10,8 C10.5522847,8 11,8.44771525 11,9 C11,9.55228475 10.5522847,10 10,10 Z M41,23 C40.4477153,23 40,22.5522847 40,22 C40,21.4477153 40.4477153,21 41,21 C41.5522847,21 42,21.4477153 42,22 C42,22.5522847 41.5522847,23 41,23 Z M37,14 C36.4477153,14 36,13.5522847 36,13 C36,12.4477153 36.4477153,12 37,12 C37.5522847,12 38,12.4477153 38,13 C38,13.5522847 37.5522847,14 37,14 Z" fill="#000000" fill-rule="nonzero"/></g><text x="0" y="65" fill="#000000" font-size="5px" font-weight="bold" font-family="'Helvetica Neue', Helvetica, Arial-Unicode, Arial, Sans-serif">Created by Nick Bluth</text><text x="0" y="70" fill="#000000" font-size="5px" font-weight="bold" font-family="'Helvetica Neue', Helvetica, Arial-Unicode, Arial, Sans-serif">from the Noun Project</text></svg>