<svg xmlns="http://www.w3.org/2000/svg" viewBox="0 0 100 125" x="0px" y="0px"><title>Simple_Shapes</title><g data-name="Layer 2"><path d="M73.54,89.74a2.46,2.46,0,0,1-1.44-.46L49.74,73.46,27.13,88.92a2.5,2.5,0,0,1-3.8-2.81L31.48,60,9.79,43.23a2.48,2.48,0,0,1-.85-2.77,2.52,2.52,0,0,1,2.34-1.71l27.39-.33,9.2-25.8A2.5,2.5,0,0,1,50.23,11h0a2.52,2.52,0,0,1,2.35,1.7L61.38,38.6l27.38.78a2.5,2.5,0,0,1,1.42,4.51l-22,16.37,7.72,26.28a2.5,2.5,0,0,1-1,2.74A2.47,2.47,0,0,1,73.54,89.74ZM49.77,67.91a2.46,2.46,0,0,1,1.44.46L69.12,81.05,62.93,60a2.5,2.5,0,0,1,.91-2.71L81.43,44.18,59.5,43.55a2.51,2.51,0,0,1-2.3-1.7l-7-20.78L42.79,41.74a2.51,2.51,0,0,1-2.32,1.66l-21.93.27L35.91,57.06a2.5,2.5,0,0,1,.86,2.72l-6.52,21,18.1-12.38A2.53,2.53,0,0,1,49.77,67.91Z"/></g><text x="0" y="115" fill="#000000" font-size="5px" font-weight="bold" font-family="'Helvetica Neue', Helvetica, Arial-Unicode, Arial, Sans-serif">Created by Kozan</text><text x="0" y="120" fill="#000000" font-size="5px" font-weight="bold" font-family="'Helvetica Neue', Helvetica, Arial-Unicode, Arial, Sans-serif">from the Noun Project</text></svg>