<svg xmlns="http://www.w3.org/2000/svg" xmlns:xlink="http://www.w3.org/1999/xlink" version="1.1" x="0px" y="0px" viewBox="0 0 64 80" style="enable-background:new 0 0 64 64;" xml:space="preserve"><g><path d="M61,24l-0.2-0.2c-0.1-0.1-0.2-0.2-0.3-0.2l-0.1-0.1c-0.1,0-0.1-0.1-0.3-0.2l-0.3-0.1c-0.2-0.1-0.4-0.2-0.6-0.2   c-2.7-0.9-5.5-0.6-8-0.3l-0.4,0c-0.4,0-2.1,0.2-3.6,0.3l-0.8,0.1l0.3-1.2c0.5-1.5,0.9-3.1,1.4-4.7c0.8-2.4,1-4.4,0.8-6.4   c-0.3-2.6-1.8-5-4.1-6.4c-1.3-0.8-2.7-1.2-4.2-1.2c-0.1,0-0.2,0-0.4,0c-1.8,0.1-3,1.3-3.2,3c-0.1,1.5-0.3,2.8-0.5,4.1   c-0.3,2.1-0.9,3.9-1.8,5.4c-0.5,0.8-1,1.6-1.7,2.3c-1,1-2,2.2-3.2,3.5l-2.6,3c-0.5,0.6-1.1,1.3-1.9,2c-0.1,0.1-0.2,0.2-0.4,0.4   c-0.4,0.3-0.8,0.6-1.2,0.8c-0.2,0.1-0.6,0.2-1.1,0.4c-1.6,0.5-4.3,1.2-4.5,3.7c0,0.7-0.1,1.4-0.1,2l0,0.4c0,0.6,0,1.1,0,1.7v21.8   l4.6,0l0.1,0c1.2,0.2,2.4,0.4,4,0.7l0.7,0.1c3.1,0.5,6,1,8.9,1.3c0.8,0.1,1.6,0.2,2.4,0.3c2.5,0.3,5.1,0.7,7.6,0.7   c4.4,0,8.6-1,11.7-5c2-2.5,2.4-5.8,2.8-8.6c0.1-0.5,0.1-1,0.2-1.4c0.3-2,0.6-4.1,0.9-6.1c0.5-3.1,1-6.4,1.4-9.6   C63.8,27.8,62.8,25.4,61,24z M61,29.8L61,29.8c-0.4,3.2-0.9,6.4-1.4,9.5c-0.3,2-0.6,4.1-0.9,6.1c-0.1,0.5-0.1,1-0.2,1.5   c-0.4,2.7-0.7,5.5-2.3,7.4c-4.1,5.1-10.7,4.2-17.1,3.4c-0.8-0.1-1.7-0.2-2.5-0.3c-2.8-0.3-5.7-0.8-8.8-1.3l-0.7-0.1   c-1.6-0.3-2.8-0.5-4-0.7l-0.3,0l-2.3,0V35.8c0-0.5,0-1.1,0-1.7l0-0.4c0-0.6,0.1-1.2,0.1-1.9c0-0.4,0.4-0.8,2.7-1.5   c0.6-0.2,1.1-0.3,1.5-0.5c0.7-0.3,1.3-0.7,1.8-1.2c0.2-0.2,0.4-0.4,0.6-0.5c0.8-0.7,1.5-1.5,2-2.1l2.6-3c1.1-1.3,2.2-2.4,3.1-3.4   c0.8-0.9,1.5-1.8,2-2.8c1-1.8,1.7-3.8,2-6.2c0.2-1.3,0.4-2.7,0.5-4.2c0.1-0.5,0.3-0.7,0.8-0.8c0.1,0,0.2,0,0.2,0c1,0,2,0.3,2.9,0.9   c1.6,1,2.7,2.7,2.9,4.6c0.2,1.6,0,3.2-0.7,5.3c-0.5,1.6-1,3.2-1.4,4.7l-0.7,2.5c-0.1,0.5,0,1,0.3,1.4c0.3,0.4,0.8,0.6,1.3,0.5   l2.2-0.2c1.6-0.1,3.3-0.3,3.7-0.3l0.4,0c2.4-0.2,4.8-0.5,7,0.2c0.1,0,0.2,0.1,0.3,0.1l0.3,0.1l0.5,0.3C60.6,26.8,61.2,28.4,61,29.8   z"/><path d="M3.9,59.9h9.3c1.9,0,3.5-1.6,3.5-3.5V28.7c0-1.9-1.6-3.5-3.5-3.5H3.9c-1.9,0-3.5,1.6-3.5,3.5v27.8   C0.4,58.4,2,59.9,3.9,59.9z M2.9,28.7c0-0.5,0.4-1,1-1h9.3c0.5,0,1,0.4,1,1v27.8c0,0.5-0.4,1-1,1H3.9c-0.5,0-1-0.4-1-1V28.7z"/><rect x="4.4" y="30.3" transform="matrix(0.7929 -0.6093 0.6093 0.7929 -17.5501 9.8767)" width="2.7" height="1"/><rect x="3.7" y="35" transform="matrix(0.7921 -0.6104 0.6104 0.7921 -19.9177 12.6127)" width="9.8" height="1"/><rect x="3.7" y="42" transform="matrix(0.7929 -0.6093 0.6093 0.7929 -24.1119 14.0098)" width="9.8" height="1"/><rect x="3.7" y="48.9" transform="matrix(0.7929 -0.6093 0.6093 0.7929 -28.3406 15.447)" width="9.8" height="1"/><rect x="8.4" y="54.2" transform="matrix(0.7929 -0.6093 0.6093 0.7929 -31.1483 17.8253)" width="4.5" height="1"/></g><text x="0" y="79" fill="#000000" font-size="5px" font-weight="bold" font-family="'Helvetica Neue', Helvetica, Arial-Unicode, Arial, Sans-serif">Created by Delwar Hossain</text><text x="0" y="84" fill="#000000" font-size="5px" font-weight="bold" font-family="'Helvetica Neue', Helvetica, Arial-Unicode, Arial, Sans-serif">from the Noun Project</text></svg>