<svg xmlns="http://www.w3.org/2000/svg" xmlns:xlink="http://www.w3.org/1999/xlink" version="1.1" x="0px" y="0px" viewBox="0 0 100 125" style="enable-background:new 0 0 100 100;" xml:space="preserve"><g><path d="M25,32c-1.1,0-2,0.9-2,2v43.2c0,5.4,4.4,9.8,9.8,9.8h34.4c5.4,0,9.8-4.4,9.8-9.8V34c0-1.1-0.9-2-2-2s-2,0.9-2,2v43.2   c0,3.2-2.6,5.8-5.8,5.8H32.8c-3.2,0-5.8-2.6-5.8-5.8V34C27,32.9,26.1,32,25,32z"/><path d="M86,24H64v-5.9c0-3.9-3.2-7.1-7.1-7.1H43.1c-3.9,0-7.1,3.2-7.1,7.1V24H14c-1.1,0-2,0.9-2,2s0.9,2,2,2h24h24h24   c1.1,0,2-0.9,2-2S87.1,24,86,24z M60,24H40v-5.9c0-1.7,1.4-3.1,3.1-3.1h13.7c1.7,0,3.1,1.4,3.1,3.1V24z"/><path d="M52,71V40c0-1.1-0.9-2-2-2s-2,0.9-2,2v31c0,1.1,0.9,2,2,2S52,72.1,52,71z"/><path d="M42,71V40c0-1.1-0.9-2-2-2s-2,0.9-2,2v31c0,1.1,0.9,2,2,2S42,72.1,42,71z"/><path d="M62,71V40c0-1.1-0.9-2-2-2s-2,0.9-2,2v31c0,1.1,0.9,2,2,2S62,72.1,62,71z"/></g><text x="0" y="115" fill="#000000" font-size="5px" font-weight="bold" font-family="'Helvetica Neue', Helvetica, Arial-Unicode, Arial, Sans-serif">Created by Icon Depot</text><text x="0" y="120" fill="#000000" font-size="5px" font-weight="bold" font-family="'Helvetica Neue', Helvetica, Arial-Unicode, Arial, Sans-serif">from the Noun Project</text></svg>