<?xml version="1.0" encoding="UTF-8" standalone="no"?>
<svg
   xmlns:dc="http://purl.org/dc/elements/1.1/"
   xmlns:cc="http://creativecommons.org/ns#"
   xmlns:rdf="http://www.w3.org/1999/02/22-rdf-syntax-ns#"
   xmlns:svg="http://www.w3.org/2000/svg"
   xmlns="http://www.w3.org/2000/svg"
   xmlns:sodipodi="http://sodipodi.sourceforge.net/DTD/sodipodi-0.dtd"
   xmlns:inkscape="http://www.inkscape.org/namespaces/inkscape"
   viewBox="0 0 17 15"
   x="0px"
   y="0px"
   version="1.1"
   id="svg8"
   sodipodi:docname="words.svg"
   width="17"
   height="15"
   inkscape:version="0.92.4 5da689c313, 2019-01-14">
  <metadata
     id="metadata14">
    <rdf:RDF>
      <cc:Work
         rdf:about="">
        <dc:format>image/svg+xml</dc:format>
        <dc:type
           rdf:resource="http://purl.org/dc/dcmitype/StillImage" />
        <dc:title></dc:title>
      </cc:Work>
    </rdf:RDF>
  </metadata>
  <defs
     id="defs12" />
  <sodipodi:namedview
     pagecolor="#ffffff"
     bordercolor="#666666"
     borderopacity="1"
     objecttolerance="10"
     gridtolerance="10"
     guidetolerance="10"
     inkscape:pageopacity="0"
     inkscape:pageshadow="2"
     inkscape:window-width="3840"
     inkscape:window-height="2048"
     id="namedview10"
     showgrid="false"
     fit-margin-left="2"
     fit-margin-top="2"
     fit-margin-bottom="2"
     fit-margin-right="2"
     inkscape:zoom="34.452067"
     inkscape:cx="7.6030402"
     inkscape:cy="1.2119243"
     inkscape:window-x="0"
     inkscape:window-y="56"
     inkscape:window-maximized="1"
     inkscape:current-layer="svg8" />
  <path
     d="m 5,2 h 7 c 0.552285,0 1,0.4477153 1,1 0,0.5522848 -0.447715,1 -1,1 H 5 C 4.4477153,4 4,3.5522848 4,3 4,2.4477153 4.4477153,2 5,2 Z"
     id="path853"
     inkscape:connector-curvature="0" />
  <path
     d="m 5,11 h 7 c 0.552285,0 1,0.447715 1,1 0,0.552285 -0.447715,1 -1,1 H 5 C 4.4477153,13 4,12.552285 4,12 4,11.447715 4.4477153,11 5,11 Z"
     id="path851"
     inkscape:connector-curvature="0" />
  <path
     d="m 3,8 h 7 c 0.552285,0 1,0.447715 1,1 0,0.552285 -0.447715,1 -1,1 H 3 C 2.4477152,10 2,9.552285 2,9 2,8.447715 2.4477152,8 3,8 Z"
     id="path849"
     inkscape:connector-curvature="0" />
  <path
     d="M 3,5 H 5 C 5.552285,5 6,5.447715 6,6 6,6.552285 5.552285,7 5,7 H 3 C 2.4477152,7 2,6.552285 2,6 2,5.447715 2.4477152,5 3,5 Z"
     id="path847"
     inkscape:connector-curvature="0" />
  <path
     d="m 13,8 h 1 c 0.552285,0 1,0.447715 1,1 0,0.552285 -0.447715,1 -1,1 H 13 C 12.447715,10 12,9.552285 12,9 12,8.447715 12.447715,8 13,8 Z"
     id="path845"
     inkscape:connector-curvature="0" />
  <path
     d="m 8,5 h 6 c 0.552285,0 1,0.447715 1,1 0,0.552285 -0.447715,1 -1,1 H 8 C 7.447715,7 7,6.552285 7,6 7,5.447715 7.447715,5 8,5 Z"
     id="path2"
     inkscape:connector-curvature="0" />
</svg>
